<?xml version="1.0" encoding="utf-8"?>
<!-- Svg Vector Icons : http://www.onlinewebfonts.com/icon -->
<!DOCTYPE svg PUBLIC "-//W3C//DTD SVG 1.1//EN" "http://www.w3.org/Graphics/SVG/1.1/DTD/svg11.dtd">
<svg version="1.1" xmlns="http://www.w3.org/2000/svg" xmlns:xlink="http://www.w3.org/1999/xlink" x="0px" y="0px" viewBox="0 0 256 256" enable-background="new 0 0 256 256" xml:space="preserve">
<metadata> Svg Vector Icons : http://www.onlinewebfonts.com/icon </metadata>
<g><g><path fill="#000000" d="M231.2,34.7L231.2,34.7c-6.5-6.5-17.1-6.5-23.7,0l-73.7,73.7l23.7,23.7l73.7-73.7C237.8,51.8,237.8,41.2,231.2,34.7L231.2,34.7z"/><path fill="#000000" d="M126.5,135.2c-0.5,2.4,1.7,4.6,4.1,4.1l24-4.4L131,111.3L126.5,135.2L126.5,135.2z"/><path fill="#000000" d="M209.6,226.2c0,4.3-3.5,7.9-7.9,7.9H39.6c-4.3,0-7.9-3.5-7.9-7.9V29.8c0-4.3,3.5-7.9,7.9-7.9h162.1c2.7,0,5.1,1.4,6.5,3.5l8.5-8.5c-3.6-4.2-9-6.9-15-6.9H39.6c-10.9,0-19.7,8.9-19.7,19.8v196.4c0,10.9,8.9,19.8,19.8,19.8h162.1c10.9,0,19.8-8.9,19.8-19.8V77l-11.9,11.9V226.2L209.6,226.2z"/><path fill="#000000" d="M182.9,168.7H58.4c-2.6,0-4.8,2.1-4.8,4.8v3c0,2.6,2.1,4.8,4.8,4.8h124.5c2.6,0,4.8-2.1,4.8-4.8v-3C187.7,170.9,185.6,168.7,182.9,168.7z"/><path fill="#000000" d="M159.1,74.7H58.4c-2.6,0-4.8,2.1-4.8,4.8v3c0,2.6,2.1,4.8,4.8,4.8h88.2L159.1,74.7z"/><path fill="#000000" d="M158.8,139l-32.5,6c-3.3,0.6-6.2-2.3-5.6-5.6l0.4-2H58.4c-2.6,0-4.8,2.1-4.8,4.8v3c0,2.6,2.1,4.8,4.8,4.8h124.5c2.6,0,4.8-2.1,4.8-4.8v-3c0-2.6-2.1-4.8-4.8-4.8h-25.7L158.8,139z"/><path fill="#000000" d="M58.4,118.6h57.7l12.5-12.5H58.4c-2.6,0-4.8,2.1-4.8,4.8v3C53.6,116.4,55.8,118.6,58.4,118.6z"/><path fill="#000000" d="M187.7,113.8V111l-7.5,7.5h2.8C185.6,118.6,187.7,116.4,187.7,113.8z"/></g></g>
</svg>